<?xml version="1.0" encoding="UTF-8" standalone="no"?>
<!-- Created with Inkscape (http://www.inkscape.org/) -->

<svg
   xmlns:dc="http://purl.org/dc/elements/1.1/"
   xmlns:cc="http://creativecommons.org/ns#"
   xmlns:rdf="http://www.w3.org/1999/02/22-rdf-syntax-ns#"
   xmlns:svg="http://www.w3.org/2000/svg"
   xmlns="http://www.w3.org/2000/svg"
   xmlns:sodipodi="http://sodipodi.sourceforge.net/DTD/sodipodi-0.dtd"
   xmlns:inkscape="http://www.inkscape.org/namespaces/inkscape"
   width="292.15326"
   height="61.939999"
   viewBox="0 0 77.29888 16.388291"
   version="1.1"
   id="svg2595"
   inkscape:version="0.92.0 r15299"
   sodipodi:docname="tool station.svg">
  <defs
     id="defs2589" />
  <sodipodi:namedview
     id="base"
     pagecolor="#ffffff"
     bordercolor="#666666"
     borderopacity="1.0"
     inkscape:pageopacity="0.0"
     inkscape:pageshadow="2"
     inkscape:zoom="3.0914697"
     inkscape:cx="145.07663"
     inkscape:cy="29.97"
     inkscape:document-units="mm"
     inkscape:current-layer="layer1"
     showgrid="false"
     fit-margin-top="0"
     fit-margin-left="0"
     fit-margin-right="0"
     fit-margin-bottom="0"
     units="px"
     inkscape:window-width="1280"
     inkscape:window-height="744"
     inkscape:window-x="-4"
     inkscape:window-y="-4"
     inkscape:window-maximized="1" />
  <metadata
     id="metadata2592">
    <rdf:RDF>
      <cc:Work
         rdf:about="">
        <dc:format>image/svg+xml</dc:format>
        <dc:type
           rdf:resource="http://purl.org/dc/dcmitype/StillImage" />
        <dc:title></dc:title>
      </cc:Work>
    </rdf:RDF>
  </metadata>
  <g
     inkscape:label="Layer 1"
     inkscape:groupmode="layer"
     id="layer1"
     transform="translate(-58.377065,-176.66033)">
    <g
       id="g2616"
       transform="translate(0.2645839,-0.26457544)">
      <path
         id="path2546"
         d="m 134.21809,185.11945 c 0,3.86662 -3.13452,7.00114 -7.00114,7.00114 H 66.352468 a 7.0011403,7.0011403 0 1 1 0,-14.00228 h 60.864742 c 3.86663,0 7.00088,3.13452 7.00088,7.00114"
         inkscape:connector-curvature="0"
         style="fill:#ffffff;fill-rule:nonzero;stroke-width:0.26458332" />
      <path
         id="path2548"
         d="m 83.510168,188.74186 a 0.59028542,0.59028542 0 0 1 -0.322269,-0.0646 0.24976666,0.24976666 0 0 1 -0.0947,-0.2196 c 0.007,-0.14949 0.10848,-0.27782 0.25189,-0.32041 l 0.0865,-0.0384 c 0.063,-0.0272 0.115631,-0.0736 0.15108,-0.13229 a 0.762,0.762 0 0 0 0.0384,-0.30215 v -4.83606 c 0.008,-0.10239 -0.005,-0.20505 -0.0384,-0.30215 a 0.3302,0.3302 0 0 0 -0.15108,-0.13229 l -0.0865,-0.0384 c -0.168011,-0.0741 -0.25189,-0.17859 -0.25189,-0.31432 a 0.25585208,0.25585208 0 0 1 0.0947,-0.22569 c 0.0992,-0.0516 0.21088,-0.0741 0.322269,-0.0646 h 2.55455 c 0.111922,-0.009 0.224361,0.0132 0.324379,0.0646 a 0.254,0.254 0 0 1 0.0947,0.22569 c 0,0.13414 -0.0839,0.23891 -0.251892,0.31432 l -0.0865,0.0384 a 0.33231667,0.33231667 0 0 0 -0.15108,0.13229 0.75961875,0.75961875 0 0 0 -0.0384,0.30215 v 5.90709 h -2.445801 m 2.74214,0 v -0.64479 a 1.4552083,1.4552083 0 0 0 0.743482,-0.23971 1.5046854,1.5046854 0 0 0 0.509849,-0.60431 c 0.0757,-0.17172 0.139168,-0.34846 0.189439,-0.52917 0.0886,-0.29104 0.20161,-0.43524 0.326501,-0.43524 a 0.25585208,0.25585208 0 0 1 0.251878,0.13891 1.8917708,1.8917708 0 0 1 0.0685,0.65484 v 1.65603 h -2.090208"
         inkscape:connector-curvature="0"
         style="fill:#004f9f;fill-rule:nonzero;stroke-width:0.26458332" />
      <path
         id="path2550"
         d="m 60.280538,185.11945 c 0.003,-3.35254 2.71939,-6.07007 6.07193,-6.07484 h 60.864742 c 3.35413,0 6.07325,2.71913 6.07325,6.07352 0,3.35412 -2.71912,6.07324 -6.07325,6.07324 H 66.352468 c -3.35201,-0.005 -6.06796,-2.72044 -6.07246,-6.07245 m 6.07246,-7.9293 a 7.9295625,7.9295625 0 1 0 0,15.85886 h 60.864742 c 4.37939,0 7.92957,-3.55018 7.92957,-7.92956 0,-4.37912 -3.55018,-7.9293 -7.92957,-7.9293 H 66.352468"
         inkscape:connector-curvature="0"
         style="fill:#004f9f;fill-rule:nonzero;stroke-width:0.26458332" />
      <path
         id="path2552"
         d="m 62.750428,181.75686 h 1.41023 v 0.65669 a 0.873125,0.873125 0 0 0 -0.37465,0.37889 c -0.12436,0.2323 -0.21458,0.48154 -0.26803,0.73951 0,0.0484 -0.0222,0.12091 -0.0341,0.21352 -0.0484,0.31432 -0.17594,0.47148 -0.38285,0.47148 a 0.30215417,0.30215417 0 0 1 -0.26458,-0.11086 0.76940833,0.76940833 0 0 1 -0.0794,-0.4191 v -1.93145 m 5.8428,0 v 2.09338 c 0.004,0.0987 -0.0302,0.195 -0.0966,0.26802 -0.0653,0.0688 -0.15716,0.1061 -0.25188,0.10266 -0.20558,0 -0.33099,-0.15716 -0.37677,-0.47149 a 2.3132521,2.3132521 0 0 0 -0.0384,-0.2196 2.6722917,2.6722917 0 0 0 -0.26458,-0.73528 0.86227708,0.86227708 0 0 0 -0.37889,-0.37888 v -0.6567 h 1.41023 m -1.70233,0 v 6.02192 c 0,0.15584 0.096,0.2704 0.28813,0.34396 h 0.014 c 0.0939,0.0238 0.18071,0.0712 0.25188,0.13705 0.0455,0.0569 0.0683,0.12859 0.0646,0.20135 a 0.22965833,0.22965833 0 0 1 -0.10266,0.21563 c -0.1233,0.0503 -0.25638,0.0709 -0.38894,0.0603 h -2.598999 a 0.84825417,0.84825417 0 0 1 -0.39079,-0.0603 0.231775,0.231775 0 0 1 -0.10266,-0.21748 c 0,-0.14896 0.11219,-0.26723 0.33655,-0.35454 l 0.0664,-0.0241 a 0.381,0.381 0 0 0 0.17516,-0.11271 c 0.0349,-0.0825 0.0487,-0.17251 0.0402,-0.26194 v -5.94995 h 2.34501 m 4.88791,5.59885 c -0.0185,0.24183 0.0164,0.48471 0.10266,0.7112 0.081,0.12938 0.22225,0.20902 0.37465,0.21166 v 0.59241 a 2.9847646,2.9847646 0 0 1 -2.19208,-1.06178 c -0.52123,-0.63659 -0.78316,-1.49013 -0.78581,-2.56064 0,-1.07447 0.26194,-1.92616 0.78581,-2.55455 a 3.0220708,3.0220708 0 0 1 2.19208,-1.06786 v 0.59241 a 0.45137917,0.45137917 0 0 0 -0.37465,0.21352 1.6420041,1.6420041 0 0 0 -0.10266,0.70908 v 4.21269 m 1.25121,0 v -4.21084 a 1.6462375,1.6462375 0 0 0 -0.10266,-0.71437 0.45534792,0.45534792 0 0 0 -0.37465,-0.20135 v -0.59346 a 3.0302729,3.0302729 0 0 1 2.19393,1.06786 c 0.52255,0.63394 0.7837,1.48537 0.7837,2.55455 0,1.07447 -0.26115,1.92616 -0.7837,2.55455 a 3.0691667,3.0691667 0 0 1 -2.19393,1.06786 v -0.5924 c 0.15082,-8e-4 0.29105,-0.0762 0.37465,-0.20135 0.0865,-0.22754 0.12171,-0.47149 0.10266,-0.71438 m 5.69172,-0.0148 c -0.0185,0.24183 0.0164,0.48471 0.10266,0.7112 0.081,0.12938 0.22225,0.20902 0.37465,0.21166 v 0.59241 a 2.9847646,2.9847646 0 0 1 -2.192079,-1.06178 c -0.521221,-0.63659 -0.783161,-1.49013 -0.785811,-2.56064 0,-1.07447 0.26194,-1.92616 0.785811,-2.55455 a 3.0220708,3.0220708 0 0 1 2.192079,-1.06786 v 0.59241 a 0.45137917,0.45137917 0 0 0 -0.37465,0.21352 1.6417396,1.6417396 0 0 0 -0.10266,0.70908 v 4.21269 m 1.25121,0 V 183.143 a 1.6523229,1.6523229 0 0 0 -0.10265,-0.71437 0.45323125,0.45323125 0 0 0 -0.37465,-0.20135 v -0.59346 a 3.0302729,3.0302729 0 0 1 2.193921,1.06786 c 0.52255,0.63394 0.783699,1.48537 0.783699,2.55455 0,1.07447 -0.261149,1.92616 -0.783699,2.55455 a 3.0691667,3.0691667 0 0 1 -2.193921,1.06786 v -0.5924 c 0.15081,-8e-4 0.29104,-0.0762 0.37465,-0.20135 0.0865,-0.22754 0.1217,-0.47149 0.10265,-0.71438"
         inkscape:connector-curvature="0"
         style="fill:#004f9f;fill-rule:nonzero;stroke-width:0.26458332" />
      <path
         id="path2554"
         d="m 91.591329,188.22804 v 0.64082 a 3.0882167,3.0882167 0 0 1 -0.868359,-0.14314 c -0.166691,-0.0582 -0.336812,-0.10451 -0.509852,-0.13891 -0.096,0.007 -0.18256,0.0603 -0.231781,0.14314 a 0.31035625,0.31035625 0 0 1 -0.251878,0.14314 0.29104167,0.29104167 0 0 1 -0.241832,-0.10874 0.47625,0.47625 0 0 1 -0.0865,-0.30612 v -1.82986 a 0.82602917,0.82602917 0 0 1 0.0707,-0.40296 c 0.0572,-0.0794 0.152659,-0.12171 0.249759,-0.11086 0.161401,0 0.280731,0.15187 0.35851,0.45534 0.0291,0.11801 0.0643,0.23416 0.105842,0.34846 a 2.1960416,2.1960416 0 0 0 0.561969,0.84429 c 0.237861,0.22542 0.52917,0.38629 0.84667,0.46751 m 0.296068,0.65485 v -0.67099 a 1.1361208,1.1361208 0 0 0 0.650873,-0.20161 c 0.145788,-0.127 0.224099,-0.31485 0.211669,-0.50773 0,-0.37042 -0.409051,-0.74322 -1.22687,-1.11813 l -0.0664,-0.0283 c -0.805921,-0.35984 -1.35599,-0.71517 -1.64995,-1.06574 a 1.9904604,1.9904604 0 0 1 -0.431269,-1.30758 2.3127229,2.3127229 0 0 1 0.648761,-1.6965 2.2584833,2.2584833 0 0 1 1.682219,-0.65882 h 0.0794 v 0.60431 a 0.80592083,0.80592083 0 0 0 -0.467521,0.26459 0.7191375,0.7191375 0 0 0 -0.177269,0.48365 c 0,0.35269 0.427041,0.70062 1.28138,1.04352 l 0.144989,0.0585 a 3.6531021,3.6531021 0 0 1 1.51923,1.00727 2.4177625,2.4177625 0 0 1 -0.265899,3.14854 2.7762729,2.7762729 0 0 1 -1.93014,0.65273 m 0.20135,-6.67067 v -0.58632 c 0.3003,0.004 0.597959,0.055 0.882388,0.15108 0.2921,0.0966 0.441061,0.14499 0.447141,0.14499 a 0.3175,0.3175 0 0 0 0.229661,-0.14896 0.33840208,0.33840208 0 0 1 0.264581,-0.14711 c 0.0833,-0.009 0.166428,0.0201 0.225689,0.0794 0.0516,0.0879 0.0741,0.18971 0.0646,0.29105 v 1.63591 c 0.0114,0.127 -0.01241,0.25427 -0.0685,0.36857 a 0.2619375,0.2619375 0 0 1 -0.231769,0.0968 c -0.15875,0 -0.278342,-0.13891 -0.358511,-0.41699 a 3.8129104,3.8129104 0 0 0 -0.0968,-0.30612 1.9608271,1.9608271 0 0 0 -0.54001,-0.77152 1.7610666,1.7610666 0 0 0 -0.820211,-0.40296 m 3.17685,-0.45297 h 1.410232 v 0.65669 a 0.87047917,0.87047917 0 0 0 -0.37465,0.37889 c -0.124881,0.2323 -0.2159,0.48154 -0.269881,0.73951 0,0.0484 -0.02011,0.12091 -0.0341,0.21352 -0.0484,0.31432 -0.17594,0.47148 -0.382852,0.47148 a 0.30215417,0.30215417 0 0 1 -0.264578,-0.11086 0.76940833,0.76940833 0 0 1 -0.0794,-0.4191 v -1.93145 m 5.842802,0 v 2.09338 c 0.004,0.0987 -0.0304,0.195 -0.0968,0.26802 -0.0653,0.0688 -0.15716,0.10584 -0.25188,0.10266 -0.20559,0 -0.331,-0.15716 -0.37677,-0.47149 a 2.0822708,2.0822708 0 0 0 -0.0384,-0.2196 2.6458333,2.6458333 0 0 0 -0.26193,-0.73528 0.86439375,0.86439375 0 0 0 -0.378888,-0.37888 v -0.6567 h 1.410228 m -1.700468,0 v 6.02192 c 0,0.15584 0.096,0.2704 0.288128,0.34396 h 0.014 c 0.0939,0.0241 0.180451,0.0714 0.25188,0.13705 0.0453,0.0572 0.0683,0.12859 0.0646,0.20135 a 0.22965833,0.22965833 0 0 1 -0.102658,0.21563 c -0.123029,0.0503 -0.256379,0.0709 -0.38893,0.0603 h -2.59901 a 0.84851875,0.84851875 0 0 1 -0.390789,-0.0603 0.22965833,0.22965833 0 0 1 -0.102651,-0.21748 c 0,-0.14896 0.112181,-0.26723 0.33655,-0.35454 l 0.0664,-0.0241 c 0.0677,-0.0204 0.12832,-0.0595 0.175152,-0.11271 0.0352,-0.0825 0.049,-0.17251 0.0402,-0.26194 v -5.94995 h 2.347121 m 4.008955,2.32489 -0.87312,3.22369 c -0.0159,0.0503 -0.0278,0.10133 -0.0362,0.15319 -0.008,0.0474 -0.0119,0.0952 -0.0122,0.14314 -0.003,0.0971 0.0225,0.19262 0.0725,0.27596 0.0482,0.0783 0.11801,0.14049 0.20135,0.17939 0.0362,0.0183 0.0794,0.0402 0.13097,0.0624 0.14314,0.041 0.24448,0.1688 0.25188,0.3175 a 0.25373541,0.25373541 0 0 1 -0.11694,0.22754 0.714375,0.714375 0 0 1 -0.3728,0.0746 h -1.20782 a 0.73527708,0.73527708 0 0 1 -0.36883,-0.0646 0.24976666,0.24976666 0 0 1 -0.10266,-0.22754 c 0,-0.1479 0.10001,-0.25373 0.3003,-0.3175 0.0601,-0.0172 0.1188,-0.0394 0.17516,-0.0664 a 0.78766458,0.78766458 0 0 0 0.27596,-0.26458 c 0.09,-0.15081 0.15742,-0.3138 0.20135,-0.48366 l 1.19062,-4.4323 0.28813,1.18666 m 1.00727,2.92735 h -1.45521 l 0.20135,-0.72126 h 1.08797 l -0.97314,-3.9407 0.17118,-0.5842 h 2.08519 l 1.43642,5.90021 0.0341,0.12091 c 0.008,0.027 0.0146,0.0545 0.018,0.0825 0,0.0966 0.0886,0.18653 0.26591,0.26988 0.17727,0.0833 0.2659,0.18785 0.2659,0.31432 a 0.25188333,0.25188333 0 0 1 -0.11271,0.23971 1.031875,1.031875 0 0 1 -0.45138,0.0646 h -2.24896 a 0.873125,0.873125 0 0 1 -0.42703,-0.0746 0.27199167,0.27199167 0 0 1 -0.12303,-0.25374 c 0.0101,-0.12435 0.0873,-0.23362 0.20134,-0.28416 0.11219,-0.0487 0.18944,-0.15425 0.20162,-0.27596 a 0.52361042,0.52361042 0 0 0 0,-0.0646 0.61065833,0.61065833 0 0 0 -0.0222,-0.11271 l -0.16933,-0.67283 m 2.98608,-5.24722 h 1.41023 v 0.65669 a 0.87047917,0.87047917 0 0 0 -0.37465,0.37889 c -0.12435,0.2323 -0.21484,0.48154 -0.26802,0.73951 0,0.0484 -0.0201,0.12091 -0.0341,0.21352 -0.0484,0.31432 -0.17595,0.47148 -0.38285,0.47148 a 0.30215417,0.30215417 0 0 1 -0.26459,-0.11086 0.76940833,0.76940833 0 0 1 -0.0794,-0.4191 v -1.93145 m 5.84279,0 v 2.09338 a 0.37041667,0.37041667 0 0 1 -0.0968,0.26802 0.33046458,0.33046458 0 0 1 -0.24977,0.10266 c -0.20558,0 -0.33099,-0.15716 -0.37677,-0.47149 -0.014,-0.0947 -0.0265,-0.16721 -0.0384,-0.2196 a 2.6691167,2.6691167 0 0 0 -0.26591,-0.73528 0.86254167,0.86254167 0 0 0 -0.37888,-0.37888 v -0.6567 h 1.41023 m -1.70048,0 v 6.02192 c 0,0.15584 0.096,0.2704 0.28813,0.34396 h 0.014 c 0.0939,0.0241 0.18045,0.0714 0.25189,0.13705 0.0455,0.0569 0.0683,0.12859 0.0646,0.20135 a 0.22965833,0.22965833 0 0 1 -0.10266,0.21563 c -0.12303,0.0503 -0.25638,0.0709 -0.38894,0.0606 h -2.599 a 0.84666667,0.84666667 0 0 1 -0.38894,-0.0603 0.22965833,0.22965833 0 0 1 -0.10266,-0.21749 c 0,-0.14896 0.11139,-0.26723 0.33444,-0.35454 l 0.0664,-0.0241 c 0.0677,-0.0204 0.12858,-0.0595 0.17515,-0.11271 0.0349,-0.0826 0.0487,-0.17251 0.0402,-0.26194 v -5.95021 h 2.34712 m 5.2787,0 c 0.11377,-0.008 0.22754,0.0151 0.32835,0.0685 0.0704,0.0519 0.10847,0.13652 0.1008,0.22357 0,0.13494 -0.0847,0.23971 -0.25373,0.31035 l -0.0987,0.0445 c -0.0627,0.0278 -0.11536,0.0741 -0.15108,0.1323 a 0.76147083,0.76147083 0 0 0 -0.0384,0.30215 v 4.84743 c -0.006,0.0897 0.004,0.17965 0.0283,0.26591 a 0.2619375,0.2619375 0 0 0 0.10583,0.11694 c 0.0397,0.0225 0.0804,0.0421 0.12277,0.0585 0.18732,0.0794 0.28416,0.20161 0.28416,0.33443 a 0.24394583,0.24394583 0 0 1 -0.10081,0.21749 0.60457292,0.60457292 0 0 1 -0.32835,0.0685 h -2.55666 a 0.59055,0.59055 0 0 1 -0.32227,-0.0664 0.24765,0.24765 0 0 1 -0.0947,-0.2196 0.35057292,0.35057292 0 0 1 0.25189,-0.32041 l 0.0865,-0.0384 c 0.0627,-0.0275 0.11563,-0.0736 0.15108,-0.1323 0.0331,-0.0971 0.046,-0.19976 0.0384,-0.30215 v -4.83526 c 0.008,-0.10239 -0.005,-0.20505 -0.0384,-0.30216 a 0.33443333,0.33443333 0 0 0 -0.15108,-0.13229 l -0.0865,-0.0384 a 0.34845625,0.34845625 0 0 1 -0.25189,-0.31433 0.25373541,0.25373541 0 0 1 0.0947,-0.22569 0.60457292,0.60457292 0 0 1 0.32227,-0.0645 h 2.55666 m 3.54463,5.60017 a 1.6380354,1.6380354 0 0 0 0.10266,0.7112 0.44979167,0.44979167 0 0 0 0.37465,0.21166 v 0.59241 a 2.9847646,2.9847646 0 0 1 -2.19208,-1.06178 c -0.52123,-0.63659 -0.78316,-1.49013 -0.78581,-2.56064 0,-1.07447 0.26194,-1.92616 0.78581,-2.55455 a 3.0220708,3.0220708 0 0 1 2.19208,-1.06786 v 0.59241 a 0.44979167,0.44979167 0 0 0 -0.37465,0.21352 1.6356541,1.6356541 0 0 0 -0.10266,0.70908 v 4.21269 m 1.25121,0 v -4.21084 a 1.654175,1.654175 0 0 0 -0.10266,-0.71437 0.45534792,0.45534792 0 0 0 -0.37465,-0.20135 v -0.59346 c 0.84932,0.0331 1.64571,0.42042 2.19604,1.06786 0.52388,0.63394 0.78502,1.48537 0.7837,2.55455 0,1.07447 -0.26114,1.92616 -0.7837,2.55455 a 3.0718125,3.0718125 0 0 1 -2.19604,1.06786 v -0.5924 c 0.15082,-8e-4 0.29104,-0.0762 0.37465,-0.20135 0.0863,-0.22754 0.12145,-0.47149 0.10266,-0.71438 m 3.73327,-4.06797 0.56621,0.96917 v 2.84877 a 1.6113125,1.6113125 0 0 0 0.0585,0.46329 c 0.0336,0.11588 0.0953,0.22172 0.17939,0.30824 0.10134,0.0892 0.21378,0.1651 0.33443,0.22569 0.1614,0.0881 0.24183,0.19023 0.24183,0.30612 0.008,0.0918 -0.0291,0.1815 -0.0987,0.24183 -0.0947,0.059 -0.20637,0.086 -0.3175,0.0765 h -1.35995 a 0.52413958,0.52413958 0 0 1 -0.31433,-0.0765 0.2841625,0.2841625 0 0 1 -0.10081,-0.24183 c 0,-0.11562 0.082,-0.21749 0.2458,-0.30612 a 1.5512521,1.5512521 0 0 0 0.3384,-0.22569 0.68791667,0.68791667 0 0 0 0.17727,-0.30824 c 0.0426,-0.22437 0.0595,-0.45297 0.0503,-0.68104 v -3.60019 m 4.91199,2.5527 -0.56807,-0.96705 v -1.29646 a 2.8204583,2.8204583 0 0 0 -0.0529,-0.65881 0.70273333,0.70273333 0 0 0 -0.18336,-0.32438 1.5610416,1.5610416 0 0 0 -0.33231,-0.22569 c -0.16114,-0.0886 -0.24183,-0.19129 -0.24183,-0.30612 a 0.29104167,0.29104167 0 0 1 0.0968,-0.24368 c 0.0926,-0.0577 0.20162,-0.0839 0.31036,-0.0746 h 1.37001 c 0.11113,-0.009 0.22252,0.0175 0.3175,0.0765 0.0696,0.0603 0.10636,0.15002 0.0987,0.24183 0,0.11562 -0.0825,0.21749 -0.24791,0.30612 a 1.5610416,1.5610416 0 0 0 -0.3384,0.22569 0.7254875,0.7254875 0 0 0 -0.17331,0.30824 2.83845,2.83845 0 0 0 -0.0529,0.67707 v 2.26245 m 0,2.88714 h -1.44462 l -3.54383,-6.10659 a 0.72310625,0.72310625 0 0 0 -0.43524,-0.32438 c -0.20029,-0.0616 -0.3003,-0.15875 -0.3003,-0.29104 a 0.23362708,0.23362708 0 0 1 0.0865,-0.20135 0.50773542,0.50773542 0 0 1 0.29104,-0.0624 h 2.65351 l 2.69372,4.65111 v 2.3331"
         inkscape:connector-curvature="0"
         style="fill:#dc0d15;fill-rule:nonzero;stroke-width:0.26458332" />
    </g>
  </g>
</svg>
